<svg width="18" height="18" viewBox="0 0 18 18" fill="none" xmlns="http://www.w3.org/2000/svg">
<g clip-path="url(#clip0_463_1659)">
<path d="M17.9999 9.05515C17.9999 4.0534 13.9702 -0.00109381 8.99993 -0.00109381C4.02743 3.11929e-05 -0.0023163 4.0534 -0.0023163 9.05628C-0.0023163 13.5754 3.28943 17.3216 7.59143 18.0011V11.673H5.30768V9.05628H7.59368V7.0594C7.59368 4.79028 8.93805 3.53703 10.9934 3.53703C11.9789 3.53703 13.0083 3.71365 13.0083 3.71365V5.94115H11.8732C10.7561 5.94115 10.4073 6.63978 10.4073 7.3564V9.05515H12.9025L12.5043 11.6719H10.4062V18C14.7082 17.3205 17.9999 13.5743 17.9999 9.05515Z" fill="#059BE5"/>
</g>
<defs>
<clipPath id="clip0_463_1659">
<rect width="18" height="18" rx="8.5375" fill="white"/>
</clipPath>
</defs>
</svg>
