<svg width="18" height="18" viewBox="0 0 18 18" fill="none" xmlns="http://www.w3.org/2000/svg">
<g clip-path="url(#clip0_463_1648)">
<path d="M17.8246 7.23722H17.0997V7.19987H8.99984V10.7998H14.0861C13.3441 12.8954 11.3501 14.3997 8.99984 14.3997C6.01774 14.3997 3.59994 11.9819 3.59994 8.99984C3.59994 6.01774 6.01774 3.59994 8.99984 3.59994C10.3764 3.59994 11.6287 4.11923 12.5822 4.96746L15.1278 2.42186C13.5205 0.923833 11.3704 0 8.99984 0C4.02968 0 0 4.02968 0 8.99984C0 13.97 4.02968 17.9997 8.99984 17.9997C13.97 17.9997 17.9997 13.97 17.9997 8.99984C17.9997 8.3964 17.9376 7.80736 17.8246 7.23722Z" fill="#FFC107"/>
<path d="M1.03719 4.81086L3.99408 6.97937C4.79417 4.99851 6.73183 3.59994 8.99934 3.59994C10.3759 3.59994 11.6282 4.11923 12.5817 4.96746L15.1273 2.42186C13.52 0.923833 11.3699 0 8.99934 0C5.54251 0 2.54466 1.95161 1.03719 4.81086Z" fill="#FF3D00"/>
<path d="M8.99988 18C11.3245 18 13.4368 17.1104 15.0338 15.6637L12.2484 13.3066C11.3144 14.0169 10.1732 14.401 8.99988 14.4001C6.65902 14.4001 4.6714 12.9074 3.92262 10.8244L0.987772 13.0856C2.47724 16.0002 5.50209 18 8.99988 18Z" fill="#4CAF50"/>
<path d="M17.8246 7.23723H17.0997V7.19988H8.99984V10.7998H14.0861C13.7311 11.7972 13.0918 12.6687 12.247 13.3067L12.2483 13.3058L15.0338 15.6629C14.8367 15.842 17.9997 13.4998 17.9997 8.99985C17.9997 8.39641 17.9376 7.80737 17.8246 7.23723Z" fill="#1976D2"/>
</g>
<defs>
<clipPath id="clip0_463_1648">
<rect width="18" height="18" rx="8.5375" fill="white"/>
</clipPath>
</defs>
</svg>
