<svg width="22" height="25" viewBox="0 0 22 25" fill="none" xmlns="http://www.w3.org/2000/svg">
<path d="M7.89685 25L7.46415 21C7.22977 20.8958 7.00909 20.7708 6.80211 20.625C6.59441 20.4792 6.3914 20.3229 6.19308 20.1563L2.97484 21.7188L0 15.7813L2.78553 13.3438C2.7675 13.1979 2.75849 13.0571 2.75849 12.9213C2.75849 12.7863 2.75849 12.6458 2.75849 12.5C2.75849 12.3542 2.75849 12.2133 2.75849 12.0775C2.75849 11.9425 2.7675 11.8021 2.78553 11.6563L0 9.21876L2.97484 3.28125L6.19308 4.84375C6.3914 4.67709 6.59874 4.52084 6.81509 4.375C7.03145 4.22917 7.2478 4.10417 7.46415 4L7.89685 0H13.8465L14.2792 4C14.5136 4.10417 14.7347 4.22917 14.9424 4.375C15.1493 4.52084 15.352 4.67709 15.5503 4.84375L18.7685 3.28125L21.7434 9.21876L18.9579 11.6563C18.9759 11.8021 18.9849 11.9425 18.9849 12.0775C18.9849 12.2133 18.9849 12.3542 18.9849 12.5C18.9849 12.6458 18.9849 12.7863 18.9849 12.9213C18.9849 13.0571 18.9669 13.1979 18.9308 13.3438L21.7163 15.7813L18.7415 21.7188L15.5503 20.1563C15.352 20.3229 15.1447 20.4792 14.9283 20.625C14.7119 20.7708 14.4956 20.8958 14.2792 21L13.8465 25H7.89685ZM10.9258 16.875C11.9715 16.875 12.8639 16.4479 13.6031 15.5938C14.3423 14.7396 14.7119 13.7083 14.7119 12.5C14.7119 11.2917 14.3423 10.2604 13.6031 9.40626C12.8639 8.55209 11.9715 8.12501 10.9258 8.12501C9.86205 8.12501 8.96491 8.55209 8.23436 9.40626C7.50454 10.2604 7.13962 11.2917 7.13962 12.5C7.13962 13.7083 7.50454 14.7396 8.23436 15.5938C8.96491 16.4479 9.86205 16.875 10.9258 16.875Z" fill="white"/>
</svg>
