<svg width="40" height="40" viewBox="0 0 40 40" fill="none" xmlns="http://www.w3.org/2000/svg">
<circle cx="20" cy="20" r="20" fill="#FF6700"/>
<path d="M7 27.8714L10.2651 25.9501C10.8949 27.0359 11.4679 27.9552 12.8424 27.9552C14.1599 27.9552 14.9906 27.4537 14.9906 25.5046L19.0003 12.2458V25.5597C19.0003 29.5983 16.5662 31.4367 13.0144 31.4367C9.8068 31.4367 7.94482 29.8212 7 27.8714Z" fill="#1A1A1A"/>
<path d="M17.1145 11.8091C18.219 11.8091 19.1144 10.9564 19.1144 9.90453C19.1144 8.85269 18.219 8 17.1145 8C16.0099 8 15.1145 8.85269 15.1145 9.90453C15.1145 10.9564 16.0099 11.8091 17.1145 11.8091Z" fill="#1A1A1A"/>
<path d="M32 15.5363L28.7347 17.4577C28.1049 16.3716 27.5317 15.4525 26.1573 15.4525C24.8399 15.4525 24.0091 15.9537 24.0091 17.9031L19.9995 31.1617V17.8482C19.9995 13.8096 22.4336 11.9712 25.9854 11.9712C29.1927 11.9712 31.0547 13.5867 31.9997 15.5366" fill="#1A1A1A"/>
</svg>
